<svg width="40" height="40" viewBox="0 0 40 40" fill="none" xmlns="http://www.w3.org/2000/svg">
<path d="M19.5322 5.5C29.1679 5.5 33.0645 9.23088 33.0645 18.4482C33.0644 27.6656 29.1679 31.3965 19.5322 31.3965C18.8239 31.3965 18.2572 31.3962 17.2656 31.25L14.5732 34.3955C14.0773 34.9807 12.5889 35.2 12.5889 33.4443V30.3721C12.1637 30.3719 11.172 29.9332 9.82617 29.0557C8.48001 28.1047 6.00001 25.8367 6 18.4482C6 9.23095 9.89672 5.50006 19.5322 5.5ZM14.9277 12.2412C14.5026 11.5585 13.9831 11.4371 13.3691 11.876C12.1883 12.5587 11.5977 13.3879 11.5977 14.3633C12.1645 17.0942 13.6056 19.6299 15.9199 21.9707C18.2343 24.3116 20.6431 25.7751 23.1465 26.3604C23.7604 26.5065 24.4215 26.1404 25.1299 25.2627C25.8383 24.385 26.0037 23.7025 25.626 23.2148L23.0752 21.2393C22.414 20.8005 21.8473 20.8983 21.375 21.5322C19.8161 24.6041 13.44 17.5084 16.2031 16.4111C16.817 15.9235 16.9825 15.3869 16.6992 14.8018L14.9277 12.2412ZM19.5205 10.6895C19.2721 10.6943 19.0744 10.9 19.0791 11.1484C19.0842 11.3966 19.2899 11.5936 19.5381 11.5889C20.5623 11.5694 21.579 11.726 22.5215 12.0459C23.464 12.3659 24.3084 12.8418 25.0029 13.4385C25.6973 14.0351 26.2251 14.738 26.5586 15.499C26.8918 16.2594 27.0261 17.0647 26.9551 17.8643C26.9333 18.1116 27.1159 18.3306 27.3633 18.3525C27.6107 18.3744 27.8294 18.1907 27.8516 17.9434C27.9362 16.9891 27.775 16.0327 27.3828 15.1377C26.9909 14.2433 26.3779 13.433 25.5898 12.7559C24.8017 12.0788 23.8541 11.5476 22.8105 11.1934C21.7669 10.8391 20.6462 10.668 19.5205 10.6895ZM20.2451 12.3809C19.9966 12.3811 19.7947 12.5825 19.7949 12.8311C19.7954 13.0793 19.9969 13.2803 20.2451 13.2803C20.8848 13.2797 21.517 13.3857 22.1016 13.5898C22.686 13.794 23.2083 14.0915 23.6387 14.46C24.0688 14.8283 24.3974 15.259 24.6094 15.7227C24.821 16.1857 24.9137 16.6757 24.8857 17.1631C24.8719 17.4109 25.0617 17.6235 25.3096 17.6377C25.5575 17.6518 25.7698 17.4618 25.7842 17.2139C25.8207 16.576 25.6983 15.9408 25.4277 15.3486C25.1572 14.7568 24.7451 14.2229 24.2236 13.7764C23.7024 13.3301 23.0809 12.9786 22.3984 12.7402C21.7158 12.5018 20.9833 12.3802 20.2451 12.3809ZM20.7891 14.1367C20.5408 14.1438 20.3447 14.3513 20.3516 14.5996C20.3588 14.8477 20.5663 15.043 20.8145 15.0361C21.0913 15.0285 21.3658 15.0683 21.6201 15.1504C21.8745 15.2325 22.1005 15.3548 22.2852 15.5059C22.4695 15.6567 22.6081 15.8318 22.6973 16.0166C22.7859 16.2006 22.8252 16.3935 22.8174 16.584C22.8073 16.8322 23.0008 17.0424 23.249 17.0527C23.4969 17.0628 23.7062 16.8699 23.7168 16.6221C23.731 16.2785 23.6588 15.9381 23.5078 15.625C23.3571 15.3126 23.1322 15.0357 22.8545 14.8086C22.5769 14.5816 22.2502 14.4071 21.8965 14.293C21.5426 14.1788 21.1657 14.1263 20.7891 14.1367Z" fill="#462B25"/>
</svg>
