<svg width="40" height="40" viewBox="0 0 40 40" fill="none" xmlns="http://www.w3.org/2000/svg">
<g clip-path="url(#clip0_75_11812)">
<path fill-rule="evenodd" clip-rule="evenodd" d="M19.9965 6.25C12.646 6.25 6.66699 12.2307 6.66699 19.5832C6.66699 22.4991 7.60735 25.2034 9.20588 27.3983L7.54454 32.3521L12.6695 30.7142C14.7773 32.1094 17.2928 32.9167 20.0042 32.9167C27.3546 32.9167 33.3337 26.9357 33.3337 19.5835C33.3337 12.2309 27.3546 6.25022 20.0042 6.25022L19.9965 6.25ZM16.2741 13.0227C16.0156 12.4035 15.8197 12.38 15.428 12.3641C15.2946 12.3564 15.146 12.3486 14.9812 12.3486C14.4717 12.3486 13.9389 12.4975 13.6176 12.8267C13.2259 13.2264 12.2541 14.1591 12.2541 16.0718C12.2541 17.9845 13.649 19.8343 13.837 20.0931C14.0329 20.3515 16.5563 24.3335 20.4744 25.9564C23.5383 27.2262 24.4475 27.1085 25.1448 26.9596C26.1635 26.7402 27.4409 25.9874 27.7622 25.0784C28.0836 24.1689 28.0836 23.3929 27.9894 23.2283C27.8954 23.0637 27.6366 22.9699 27.2449 22.7737C26.8533 22.5777 24.9489 21.637 24.5884 21.5116C24.2356 21.3784 23.8988 21.4255 23.6325 21.8018C23.2563 22.327 22.8881 22.8602 22.5902 23.1814C22.3551 23.4323 21.971 23.4637 21.6498 23.3303C21.2188 23.1502 20.0122 22.7265 18.5231 21.4019C17.3711 20.3752 16.5875 19.0976 16.3604 18.7136C16.133 18.3218 16.3369 18.0942 16.5169 17.8827C16.7129 17.6396 16.9009 17.4672 17.0968 17.2398C17.2928 17.0126 17.4025 16.8949 17.5279 16.6284C17.6613 16.3698 17.567 16.1032 17.473 15.9072C17.379 15.7112 16.5955 13.7985 16.2741 13.0227Z" fill="#462B25"/>
</g>
<defs>
<clipPath id="clip0_75_11812">
<rect width="26.6667" height="26.6667" fill="white" transform="translate(6.66699 6.25)"/>
</clipPath>
</defs>
</svg>
